<svg xmlns="http://www.w3.org/2000/svg" viewBox="0 0 153.9 147.3"><defs><style>.cls-1{fill:#e2e5f3;}</style></defs><g id="Layer_2" data-name="Layer 2"><g id="Layer_3" data-name="Layer 3"><path class="cls-1" d="M153.43,140.09,94.94,2.54A3.8,3.8,0,0,0,91.59,0H62.53a3.8,3.8,0,0,0-3.35,2.54L.47,140.09c-1.38,3.24.46,7.19,3.35,7.19H20.55v0H31c5.77-4.92,20.52-16.12,41.35-17.47V90.44H59.63c-2.82,0-4.66-3.78-3.41-7L73.64,38.49c1.4-3.61,5.44-3.61,6.83,0L97.8,83.44c1.24,3.23-.6,7-3.41,7H81.59v39.48c20.39,1.67,34.83,12.71,40.31,17.38h10.41v0h17.77C153,147.28,154.81,143.33,153.43,140.09Z"/></g></g></svg>